<?xml version="1.0" encoding="UTF-8" standalone="no"?> <svg xmlns="http://www.w3.org/2000/svg" viewBox="0 0 64 64"><defs><style>.cls-1{fill:red;}</style></defs><title>1</title><g id="Layer_50" data-name="Layer 50"><path class="cls-1" d="M32,23.48a6.89,6.89,0,1,0,6.89,6.89A6.9,6.9,0,0,0,32,23.48Zm0,9.79a2.89,2.89,0,1,1,2.89-2.89A2.9,2.9,0,0,1,32,33.26Z"/><path class="cls-1" d="M32,2A29,29,0,0,0,3,30.85,28.61,28.61,0,0,0,7.49,46.26a2,2,0,0,0,3.37-2.15A24.6,24.6,0,0,1,7,30.85a25,25,0,0,1,50,0,24.6,24.6,0,0,1-3.86,13.26,2,2,0,1,0,3.37,2.15A28.61,28.61,0,0,0,61,30.85,29,29,0,0,0,32,2Z"/><path d="M35.09,9.6a21.67,21.67,0,0,0-6.17,0,21.31,21.31,0,0,0-18.21,21,20.88,20.88,0,0,0,1.5,7.83,2,2,0,0,0,3.71-1.49,16.91,16.91,0,0,1-1.21-6.34,17.29,17.29,0,0,1,14.79-17,17.58,17.58,0,0,1,5,0,17.29,17.29,0,0,1,14.78,17,16.91,16.91,0,0,1-1.21,6.34,2,2,0,1,0,3.71,1.49,20.88,20.88,0,0,0,1.5-7.83A21.3,21.3,0,0,0,35.09,9.6Z"/><path d="M40.94,41a13.84,13.84,0,0,0,4.93-10.59,2,2,0,1,0-4,0,9.87,9.87,0,1,1-19.74,0,2,2,0,0,0-4,0A13.84,13.84,0,0,0,23.06,41L16.93,59.37A2,2,0,0,0,18.83,62H45.17a2,2,0,0,0,1.9-2.63ZM21.6,58l5-14.87a13.84,13.84,0,0,0,10.89,0L42.4,58Z"/></g></svg>